<svg id="Layer_1" data-name="Layer 1" xmlns="http://www.w3.org/2000/svg" viewBox="0 0 286.43 98.61"><defs><style>.cls-1{fill:#fff;}.cls-2{fill:#0072bb;}.cls-3{fill:#ce181e;}</style></defs><path class="cls-1" d="M268.88,23.23v-4h-1.17v-.82h3.14v.82h-1.17v4Z"/><path class="cls-1" d="M271.5,23.23V18.41h1.19l.72,3.29.71-3.29h1.2v4.82h-.74v-3.8l-.79,3.8H273l-.78-3.8v3.8Z"/><path class="cls-1" d="M18.72,60.68V71.47h6.21v1.27H17.37V60.68Z"/><path class="cls-1" d="M38.4,70.19h1.26c0,.15,0,.27,0,.35a2,2,0,0,1-1.18,2,6.75,6.75,0,0,1-2.5.33c-1.56,0-2.59-.34-3.09-1a6.07,6.07,0,0,1-.62-3.32,6.32,6.32,0,0,1,.59-3.3c.47-.7,1.51-1.06,3.1-1.06a5.81,5.81,0,0,1,2.43.36c.73.38,1.14,1.25,1.22,2.6,0,.29,0,.83,0,1.62H33.58a5.53,5.53,0,0,0,.32,2.35c.3.48,1,.72,2.11.72q2,0,2.25-.57A2.63,2.63,0,0,0,38.4,70.19Zm0-2.41a11.33,11.33,0,0,0-.08-1.37,1.28,1.28,0,0,0-.75-1.06,4.21,4.21,0,0,0-1.5-.19,5.82,5.82,0,0,0-1.33.11,1.3,1.3,0,0,0-1,.8,4.8,4.8,0,0,0-.21,1.71Z"/><path class="cls-1" d="M49.34,66.66H48.11a3.79,3.79,0,0,1,.22-1.44,1.6,1.6,0,0,1,1.1-.84,7.53,7.53,0,0,1,2-.21,8.18,8.18,0,0,1,1.83.16,2,2,0,0,1,1.4,1.08A4.33,4.33,0,0,1,55,67.17v5.57H53.74l.1-.91h0a2.13,2.13,0,0,1-1.27.89,6.37,6.37,0,0,1-1.6.15,3.9,3.9,0,0,1-2.57-.65,2.46,2.46,0,0,1-.62-1.92,2.57,2.57,0,0,1,.77-2.18A4.39,4.39,0,0,1,51,67.6a6,6,0,0,1,2.13.3,1.18,1.18,0,0,1,.6.57h0v-1a3,3,0,0,0-.38-1.86,2.59,2.59,0,0,0-1.83-.45,4.75,4.75,0,0,0-1.47.15,1.07,1.07,0,0,0-.72,1.12Zm2.06,1.93a4.89,4.89,0,0,0-1.68.17c-.46.2-.68.65-.68,1.37s.18,1.22.55,1.43a3.44,3.44,0,0,0,1.62.25,3.62,3.62,0,0,0,2.24-.49,1.3,1.3,0,0,0,.35-1.06,1.44,1.44,0,0,0-.69-1.43A4.22,4.22,0,0,0,51.4,68.59Z"/><path class="cls-1" d="M70.75,60.68V72.74H69.52l.07-1.1h0c-.39.82-1.3,1.23-2.71,1.23A3.3,3.3,0,0,1,64.27,72c-.53-.59-.79-1.79-.79-3.61A8.31,8.31,0,0,1,63.75,66c.4-1.19,1.4-1.79,3-1.79a4.51,4.51,0,0,1,2.09.41,1.42,1.42,0,0,1,.66.79l0,0V60.68Zm-3.66,4.54a2.6,2.6,0,0,0-1.76.44,4.07,4.07,0,0,0-.57,2.66A7.33,7.33,0,0,0,65,70.84c.3.65,1,1,2.08,1s1.69-.22,2-.67a6.09,6.09,0,0,0,.41-2.87,3.84,3.84,0,0,0-.58-2.53A2.57,2.57,0,0,0,67.09,65.22Z"/><path class="cls-1" d="M85.22,70.19h1.27c0,.15,0,.27,0,.35a2,2,0,0,1-1.18,2,6.75,6.75,0,0,1-2.5.33c-1.56,0-2.59-.34-3.09-1a6.05,6.05,0,0,1-.63-3.32,6.3,6.3,0,0,1,.6-3.3c.47-.7,1.51-1.06,3.1-1.06a5.81,5.81,0,0,1,2.43.36c.73.38,1.14,1.25,1.22,2.6,0,.29,0,.83,0,1.62H80.41a5.53,5.53,0,0,0,.32,2.35c.3.48,1,.72,2.11.72q2,0,2.25-.57A2.68,2.68,0,0,0,85.22,70.19Zm0-2.41a8.14,8.14,0,0,0-.08-1.37,1.26,1.26,0,0,0-.74-1.06,4.21,4.21,0,0,0-1.5-.19,5.82,5.82,0,0,0-1.33.11,1.3,1.3,0,0,0-.95.8,4.8,4.8,0,0,0-.21,1.71Z"/><path class="cls-1" d="M95,64.3h1.23l-.12,1,0,0a2.17,2.17,0,0,1,.88-.88,3.5,3.5,0,0,1,1.54-.31,2.09,2.09,0,0,1,2.33,2.4c0,.12,0,.31,0,.59H99.64v-.68c0-.84-.47-1.26-1.4-1.26a1.78,1.78,0,0,0-1.79.88,4,4,0,0,0-.23,1.65v5.06H95Z"/><path class="cls-1" d="M115.43,66.5h-1.22c0-.67-.22-1.09-.61-1.24a6.34,6.34,0,0,0-1.56-.1,6.48,6.48,0,0,0-1.54.1c-.45.15-.67.54-.67,1.16s.17,1.2.53,1.32a10.19,10.19,0,0,0,1.73.16c1.12,0,1.77.09,1.94.12q1.65.27,1.65,2.34a2.38,2.38,0,0,1-.67,1.91,7.56,7.56,0,0,1-5.81,0,2.05,2.05,0,0,1-.7-1.74c0-.13,0-.29,0-.5h1.28a3.69,3.69,0,0,0,0,.41,1.27,1.27,0,0,0,.47,1.18,6.5,6.5,0,0,0,3.79-.11,1.4,1.4,0,0,0,.39-1.18,1.76,1.76,0,0,0-.22-1,1.34,1.34,0,0,0-1-.31,17,17,0,0,1-3.25-.25,1.59,1.59,0,0,1-1.12-.81,3.09,3.09,0,0,1-.25-1.41,2.2,2.2,0,0,1,.6-1.82,5.18,5.18,0,0,1,2.9-.55,6.67,6.67,0,0,1,2.26.27,1.7,1.7,0,0,1,1.09,1.75Z"/><path class="cls-1" d="M136.07,60.68v1.39h-1.23V60.68Zm0,3.62v8.44h-1.23V64.3Z"/><path class="cls-1" d="M144.69,64.3h1.24l0,1.14,0,0a1.87,1.87,0,0,1,1.13-1,4.94,4.94,0,0,1,1.67-.25c1.41,0,2.32.36,2.76,1.09a4.47,4.47,0,0,1,.29,2v5.49h-1.23V67.35a5.18,5.18,0,0,0-.08-1.16,1.11,1.11,0,0,0-.7-.82,3.84,3.84,0,0,0-1.21-.15,3,3,0,0,0-2,.53,2.48,2.48,0,0,0-.63,1.91v5.08h-1.28Z"/><path class="cls-1" d="M179.72,64h-1.35a4.28,4.28,0,0,0-.13-1.27,1.22,1.22,0,0,0-.89-.81,7.14,7.14,0,0,0-1.73-.14,6.25,6.25,0,0,0-2.72.36c-.41.26-.62.84-.62,1.72,0,1,.29,1.68.86,1.91a11.22,11.22,0,0,0,2.49.25c.93,0,1.52.08,1.79.12a3.31,3.31,0,0,1,1.66.55,3.36,3.36,0,0,1,.86,2.7,4,4,0,0,1-.62,2.6,3.1,3.1,0,0,1-2,.85,21.21,21.21,0,0,1-2.21.07,10.44,10.44,0,0,1-2.51-.2,2.46,2.46,0,0,1-1.71-2.29,12.75,12.75,0,0,1-.07-1.36h1.35v.3a4.45,4.45,0,0,0,.17,1.45,1.53,1.53,0,0,0,1.29.91c.13,0,.7,0,1.72,0a9.12,9.12,0,0,0,2.06-.15,1.32,1.32,0,0,0,1-.89,5.19,5.19,0,0,0,.13-1.45c0-.93-.25-1.5-.74-1.71a12.33,12.33,0,0,0-2.54-.27l-1.53-.07a4.28,4.28,0,0,1-1.48-.36A2.81,2.81,0,0,1,170.93,64a3.34,3.34,0,0,1,.9-2.74,6.33,6.33,0,0,1,3.56-.69,9.72,9.72,0,0,1,2.69.25,2.21,2.21,0,0,1,1.57,1.91A7.72,7.72,0,0,1,179.72,64Z"/><path class="cls-1" d="M193.83,70.19h1.27v.35a2,2,0,0,1-1.17,2,6.75,6.75,0,0,1-2.5.33c-1.56,0-2.59-.34-3.09-1a6.05,6.05,0,0,1-.63-3.32,6.42,6.42,0,0,1,.59-3.3c.48-.7,1.51-1.06,3.1-1.06a5.83,5.83,0,0,1,2.44.36c.73.38,1.14,1.25,1.22,2.6,0,.29,0,.83,0,1.62H189a5.53,5.53,0,0,0,.32,2.35c.3.48,1,.72,2.11.72,1.3,0,2.06-.19,2.25-.57A2.68,2.68,0,0,0,193.83,70.19Zm0-2.41a9.47,9.47,0,0,0-.08-1.37,1.26,1.26,0,0,0-.74-1.06,4.25,4.25,0,0,0-1.5-.19,5.82,5.82,0,0,0-1.33.11,1.33,1.33,0,0,0-1,.8,4.85,4.85,0,0,0-.2,1.71Z"/><path class="cls-1" d="M203.6,64.3h1.23l-.13,1,0,0a2.22,2.22,0,0,1,.87-.88,3.54,3.54,0,0,1,1.55-.31,2.09,2.09,0,0,1,2.33,2.4c0,.12,0,.31,0,.59h-1.23v-.68c0-.84-.46-1.26-1.39-1.26a1.77,1.77,0,0,0-1.79.88,4,4,0,0,0-.23,1.65v5.06H203.6Z"/><path class="cls-1" d="M223.94,64.3l-2.83,8.44h-1.77l-2.8-8.44h1.27l2.41,7.48h0l.43-1.44.45-1.43,1.43-4.61Z"/><path class="cls-1" d="M232.63,60.68v1.39H231.4V60.68Zm0,3.62v8.44H231.4V64.3Z"/><path class="cls-1" d="M247,69.69h1.23c0,.18,0,.33,0,.43a2.4,2.4,0,0,1-1,2.28,5.39,5.39,0,0,1-2.61.46c-1.54,0-2.56-.35-3-1.06a6.33,6.33,0,0,1-.6-3.33,6.22,6.22,0,0,1,.55-3.11c.48-.79,1.5-1.19,3-1.19a5.38,5.38,0,0,1,2.57.45,1.74,1.74,0,0,1,.83,1,4.76,4.76,0,0,1,.16,1.38H246.9v-.22a1.36,1.36,0,0,0-.72-1.4,4.63,4.63,0,0,0-1.71-.21c-1.06,0-1.72.32-2,1a8.19,8.19,0,0,0-.21,2.42c0,1.56.22,2.53.66,2.9a3.69,3.69,0,0,0,2,.32,2.71,2.71,0,0,0,1.75-.38A2.56,2.56,0,0,0,247,69.69Z"/><path class="cls-1" d="M262.32,70.19h1.27v.35a2,2,0,0,1-1.17,2,6.75,6.75,0,0,1-2.5.33c-1.56,0-2.59-.34-3.09-1a6.05,6.05,0,0,1-.63-3.32,6.3,6.3,0,0,1,.6-3.3c.47-.7,1.5-1.06,3.09-1.06a5.83,5.83,0,0,1,2.44.36c.73.38,1.14,1.25,1.22,2.6,0,.29,0,.83,0,1.62h-6.08a5.53,5.53,0,0,0,.32,2.35c.3.48,1,.72,2.11.72q2,0,2.25-.57A2.68,2.68,0,0,0,262.32,70.19Zm0-2.41a9.47,9.47,0,0,0-.08-1.37,1.26,1.26,0,0,0-.74-1.06,4.21,4.21,0,0,0-1.5-.19,5.82,5.82,0,0,0-1.33.11,1.33,1.33,0,0,0-1,.8,4.85,4.85,0,0,0-.2,1.71Z"/><rect class="cls-2" x="17.37" y="78.51" width="58.19" height="0.95"/><rect class="cls-3" x="75.56" y="78.51" width="188.04" height="0.95"/><rect class="cls-2" x="75.55" y="18.42" width="188.04" height="38.17"/><rect class="cls-3" x="17.37" y="18.42" width="58.19" height="38.17"/><path class="cls-1" d="M29.83,41V28.23a4.7,4.7,0,0,0-4.7-4.7H23V42.41A9.06,9.06,0,0,0,32,51.47h5.49a4.78,4.78,0,0,0,4.78-4.78V45.55H34.43A4.6,4.6,0,0,1,29.83,41Z"/><path class="cls-1" d="M61.48,34.54h-9.3a2.56,2.56,0,1,1,0-5.11H63.75a4.74,4.74,0,0,0,4.74-4.74V23.53H51.09a8.47,8.47,0,1,0,0,16.93h9.3a2.56,2.56,0,0,1,0,5.11H43.77v.8a5.13,5.13,0,0,0,5.13,5.12H61.48a8.47,8.47,0,0,0,0-16.93Z"/><path class="cls-1" d="M81.8,51.49V26.78a2.87,2.87,0,0,1,2.89-2.88h17.16v4.73H87.42v5.93H98.16v1.85a2.78,2.78,0,0,1-.84,2,2.75,2.75,0,0,1-2,.85H87.42v7.06h14.43v5.13Z"/><path class="cls-1" d="M104.45,23.9h2.89a2.68,2.68,0,0,1,1.92.76,2.5,2.5,0,0,1,.8,1.88v25h-5.61Z"/><path class="cls-1" d="M127.82,44.91h4a8.81,8.81,0,0,1-3.37,5.14,10.23,10.23,0,0,1-6.26,1.84,8.93,8.93,0,0,1-7.14-3c-1.71-1.92-2.56-4.68-2.56-8.26,0-3.42.82-6.1,2.48-8a8.93,8.93,0,0,1,7.14-3,9.59,9.59,0,0,1,7.46,2.89q2.56,3,2.57,8.26v.88a1.4,1.4,0,0,1-.08.56H118.19a5.49,5.49,0,0,0,1.2,3.69,3.79,3.79,0,0,0,3.13,1.29,4.59,4.59,0,0,0,2.33-.56,1.22,1.22,0,0,0,.44-.28l.44-.45a1.71,1.71,0,0,1,.6-.64A2.45,2.45,0,0,1,127.82,44.91Zm-9.63-6.26h8.18a5.2,5.2,0,0,0-1.12-3.2,3.87,3.87,0,0,0-3-1.13,3.91,3.91,0,0,0-2.89,1.13A4.58,4.58,0,0,0,118.19,38.65Z"/><path class="cls-1" d="M149.29,44.91h4a8.77,8.77,0,0,1-3.37,5.14,10.21,10.21,0,0,1-6.26,1.84,8.92,8.92,0,0,1-7.13-3C134.82,47,134,44.24,134,40.66c0-3.42.83-6.1,2.49-8a8.92,8.92,0,0,1,7.13-3,9.59,9.59,0,0,1,7.46,2.89,11,11,0,0,1,2.09,4.09h-5.61a4.59,4.59,0,0,0-.81-1.2,3.84,3.84,0,0,0-3-1.13,3.9,3.9,0,0,0-2.88,1.13q-1.45,1.61-1.45,5.29T140.87,46A3.77,3.77,0,0,0,144,47.24a4.58,4.58,0,0,0,2.32-.56,1.22,1.22,0,0,0,.44-.28l.44-.45a3.9,3.9,0,0,1,.65-.64A2.25,2.25,0,0,1,149.29,44.91Z"/><path class="cls-1" d="M164.65,51.49a42.78,42.78,0,0,1-5.73-.08q-3.09-.24-3.09-3.93V23.9h2.89a2.5,2.5,0,0,1,1.84.8,2.61,2.61,0,0,1,.81,1.92v3.61h3.28v1.13a2.56,2.56,0,0,1-.8,2,2.68,2.68,0,0,1-1.92.76h-.56V46c0,.91.53,1.37,1.6,1.37h1.68Z"/><path class="cls-1" d="M166.61,51.49V41.14a13.27,13.27,0,0,1,.92-5.25,8.69,8.69,0,0,1,2.53-3.41,10,10,0,0,1,3.57-1.77,16,16,0,0,1,4.21-.56h.8v5.7H176.8A4.66,4.66,0,0,0,173.35,37a4.83,4.83,0,0,0-1.13,3.53v11Z"/><path class="cls-1" d="M203.64,44.91h4a8.77,8.77,0,0,1-3.37,5.14A10.21,10.21,0,0,1,198,51.89a8.92,8.92,0,0,1-7.13-3c-1.72-1.92-2.57-4.68-2.57-8.26,0-3.42.83-6.1,2.49-8a8.92,8.92,0,0,1,7.13-3,9.59,9.59,0,0,1,7.46,2.89,11,11,0,0,1,2.09,4.09h-5.62a4.36,4.36,0,0,0-.8-1.2,3.84,3.84,0,0,0-3-1.13,3.9,3.9,0,0,0-2.88,1.13q-1.46,1.61-1.45,5.29T195.22,46a3.77,3.77,0,0,0,3.13,1.29,4.58,4.58,0,0,0,2.32-.56,1.22,1.22,0,0,0,.44-.28l.44-.45a3.53,3.53,0,0,1,.65-.64A2.25,2.25,0,0,1,203.64,44.91Z"/><path class="cls-1" d="M223.49,50.61a9.85,9.85,0,0,1-3.57,1.08,33,33,0,0,1-3.33.2,8.44,8.44,0,0,1-5.06-1.56c-1.44-1-2.16-2.77-2.16-5.18,0-2.24.65-3.85,2-4.81a11.34,11.34,0,0,1,5-1.93,4.8,4.8,0,0,0,1-.12c.37-.08.8-.14,1.28-.2,2.35-.32,3.53-1,3.53-2.08a1.52,1.52,0,0,0-1.24-1.57,8.28,8.28,0,0,0-2.29-.36,5.91,5.91,0,0,0-2,.32,2.22,2.22,0,0,0-1.29,1.21h-5.37a6.13,6.13,0,0,1,2.25-4.09,9.24,9.24,0,0,1,6.17-1.85c3,0,5.24.51,6.74,1.53a5.15,5.15,0,0,1,2.33,4.49V43a9.15,9.15,0,0,1-1.17,5A7.2,7.2,0,0,1,223.49,50.61Zm-1.29-9.87a14.75,14.75,0,0,1-3.13,1l-1.84.4a4.78,4.78,0,0,0-2.09,1,3.28,3.28,0,0,0-.56,1.76,2.62,2.62,0,0,0,.72,1.93,3.06,3.06,0,0,0,2.09.64,4.44,4.44,0,0,0,4.81-4.81Z"/><path class="cls-1" d="M230.44,23.9h2.89a2.68,2.68,0,0,1,1.92.76,2.47,2.47,0,0,1,.8,1.88v25h-5.61Z"/><path class="cls-1" d="M238.42,44.43h5.45a3,3,0,0,0,1.21,2.41,5.72,5.72,0,0,0,3.2.8,5.2,5.2,0,0,0,2.49-.56,1.72,1.72,0,0,0,1-1.53q0-1.44-3.36-2.16a15.17,15.17,0,0,1-2.17-.48q-4.24-1-5.7-2.49a4.92,4.92,0,0,1-1.6-3.85,6.35,6.35,0,0,1,2.33-5.05,10,10,0,0,1,6.25-1.85,10.94,10.94,0,0,1,6.66,1.85,7.05,7.05,0,0,1,2.49,5.21h-3.45a2.55,2.55,0,0,1-2.33-1.36l-.64-.65a4.32,4.32,0,0,0-2.65-.72,4.74,4.74,0,0,0-2.4.48,1.64,1.64,0,0,0-.73,1.45c0,.85,1.39,1.58,4.18,2.16a7.08,7.08,0,0,0,.84.24,2.79,2.79,0,0,0,.68.08,15,15,0,0,1,5.7,2.41,5.08,5.08,0,0,1,1.52,3.85,6.44,6.44,0,0,1-2.57,5.46q-2.4,1.75-7.22,1.76c-3,0-5.32-.61-6.81-1.84a6.44,6.44,0,0,1-2.33-5.38Z"/><path class="cls-1" d="M180.66,39.82V51.49h5.62V32.88a2.7,2.7,0,0,0-.2-1Z"/><path class="cls-3" d="M183.5,27.32h-3.59c-.81,0-1-.36-.73-1.21l2.4-6.91c.24-.71.33-.78,1-.78h3.11c.72,0,1,.45.64,1.16-.66,1.44-1.31,2.87-2,4.31-.06.13-.12.27-.2.47h2c.58,0,1.16,0,1.74,0a.87.87,0,0,1,.6.38,1,1,0,0,1-.1.73q-3,4.5-6,9c-.15.23-.33.37-.58.2s-.23-.44-.15-.71c.56-2,1.11-4,1.67-6C183.4,27.74,183.44,27.56,183.5,27.32Z"/></svg>